HIERARCHY
ROOT Hips
{
	OFFSET 0.000000 0.000000 0.000000 
	CHANNELS 6 Xposition Yposition Zposition Yrotation Zrotation Xrotation 
	JOINT Lumbar
	{
		OFFSET 0.000000 0.000000 0.000000 
		CHANNELS 3 Zrotation Xrotation Yrotation
		JOINT Neck
		{
			OFFSET 0.000000 0.445665 0.000000 
			CHANNELS 3 Zrotation Xrotation Yrotation
			End Site
			{
				OFFSET 0.000000 0.227535 0.000000 
			}
		}
		JOINT RightShoulder
		{
			OFFSET 0.019635 0.377685 0.194865 
			CHANNELS 3 Zrotation Xrotation Yrotation
			JOINT RightElbow
			{
				OFFSET 0.000000 -0.243375 0.000000 
				CHANNELS 2 Zrotation Yrotation
				JOINT RightWrist
				{
					OFFSET 0.000000 -0.264825 0.000000 
					CHANNELS 2 Zrotation Xrotation
					End Site
					{
						OFFSET 0.006600 -0.176220 0.000990 
					}
				}
			}
		}
		JOINT LeftShoulder
		{
			OFFSET 0.019635 0.377685 -0.194865 
			CHANNELS 3 Zrotation Xrotation Yrotation
			JOINT LeftElbow
			{
				OFFSET 0.000000 -0.243375 0.000000 
				CHANNELS 2 Zrotation Yrotation
				JOINT LeftWrist
				{
					OFFSET 0.000000 -0.264825 0.000000 
					CHANNELS 2 Zrotation Xrotation
					End Site
					{
						OFFSET 0.006600 -0.176220 -0.000990 
					}
				}
			}
		}
	}
	JOINT RightHip
	{
		OFFSET 0.052140 -0.069960 0.075570 
		CHANNELS 3 Zrotation Xrotation Yrotation
		JOINT RightKnee
		{
			OFFSET 0.000000 -0.402270 0.000000 
			CHANNELS 1 Zrotation
			JOINT RightAnkle
			{
				OFFSET 0.000000 -0.404085 0.000000 
				CHANNELS 3 Zrotation Xrotation Yrotation
				End Site
				{
					OFFSET 0.204105 -0.089430 0.008415 
				}
			}
		}
	}
	JOINT LeftHip
	{
		OFFSET 0.052140 -0.069960 -0.075570 
		CHANNELS 3 Zrotation Xrotation Yrotation
		JOINT LeftKnee
		{
			OFFSET 0.000000 -0.402270 0.000000 
			CHANNELS 1 Zrotation
			JOINT LeftAnkle
			{
				OFFSET 0.000000 -0.404085 0.000000 
				CHANNELS 3 Zrotation Xrotation Yrotation
				End Site
				{
					OFFSET 0.204105 -0.089430 -0.008415 
				}
			}
		}
	}
}
MOTION
Frames: 13
Frame Time: 0.02
-0.00136 -0.00138 0.00168 33.9127 -16.92992 -13.30664 39.76504 5.86704 -5.25215 -16.60598 3.0785 -0.44613 -25.63635 -22.67037 -19.09903 131.42465 55.26059 -16.97713 2.35831 -13.15564 16.08578 28.31746 135.59482 -40.63634 -23.66801 -3.93955 32.17849 8.69047 -18.34735 -22.0108 -20.25238 -6.14009 -4.14694 46.00695 21.964 -13.43155 -32.07593 -8.61346 3.67983 2.66874
-0.00112 -0.00132 0.00179 33.96203 -16.88824 -13.31122 39.78774 5.79532 -5.47133 -16.27936 2.82933 -0.447 -24.99989 -20.72598 -18.75406 131.37842 56.2862 -17.29187 2.07193 -13.44757 15.36037 26.51307 135.48717 -41.27018 -23.37341 -3.87903 32.1141 8.67459 -18.50515 -22.00118 -17.39979 -5.26441 -3.61745 45.89393 21.91777 -13.68123 -32.04197 -8.63119 3.71278 2.68842
-0.00087 -0.00126 0.0019 34.01102 -16.84673 -13.31579 39.81042 5.72381 -5.69004 -15.95336 2.58086 -0.44786 -24.36606 -18.78856 -18.4099 131.3318 57.30856 -17.60612 1.7871 -13.74006 14.63695 24.7144 135.37949 -41.90184 -23.08001 -3.81868 32.04998 8.65881 -18.66214 -21.99161 -14.55958 -4.39253 -3.09026 45.78129 21.87173 -13.93008 -32.00816 -8.64887 3.74562 2.70803
-0.00063 -0.0012 0.00201 34.06016 -16.80519 -13.32036 39.83306 5.65231 -5.90858 -15.62767 2.33243 -0.44873 -23.73169 -16.85031 -18.06592 131.2856 58.33105 -17.91996 1.50176 -14.03137 13.91374 22.91556 135.2721 -42.53377 -22.78633 -3.75834 31.98581 8.64298 -18.81938 -21.98203 -11.71648 -3.51976 -2.56254 45.66862 21.82565 -14.179 -31.97431 -8.66655 3.77846 2.72764
-0.00038 -0.00114 0.00212 34.10971 -16.76347 -13.32495 39.85573 5.58058 -6.1275 -15.30152 2.08334 -0.4496 -23.09441 -14.90475 -17.72132 131.24006 59.35667 -18.23413 1.21449 -14.32144 13.18863 21.11102 135.16494 -43.16776 -22.49142 -3.69788 31.92131 8.62704 -18.97758 -21.9724 -8.85933 -2.64268 -2.03221 45.55557 21.77937 -14.42875 -31.94029 -8.68429 3.81139 2.74731
-0.00014 -0.00108 0.00223 34.15753 -16.7224 -13.32947 39.8784 5.50956 -6.34574 -14.97589 1.83621 -0.45046 -22.46783 -12.98454 -17.37815 131.19124 60.37202 -18.54857 0.93475 -14.61891 12.46878 19.32484 135.05619 -43.79437 -22.20125 -3.63776 31.85801 8.61159 -19.13206 -21.96294 -6.05467 -1.7817 -1.51161 45.4438 21.73385 -14.67564 -31.90694 -8.70185 3.84403 2.7668
0.00011 -0.00101 0.00235 34.20875 -16.68007 -13.33412 39.90103 5.4372 -6.5651 -14.64949 1.58538 -0.45133 -21.82055 -11.01553 -17.03224 131.14886 61.40729 -18.86204 0.64051 -14.90151 11.73924 17.50359 134.9506 -44.43567 -21.90169 -3.57695 31.79238 8.59517 -19.29373 -21.95316 -3.14857 -0.88961 -0.97221 45.32956 21.68682 -14.92811 -31.87228 -8.71975 3.87725 2.78664
0.00035 -0.00095 0.00246 34.2569 -16.63889 -13.33867 39.92373 5.36607 -6.78345 -14.32397 1.33798 -0.4522 -21.19213 -9.09137 -16.6893 131.10091 62.42351 -19.17652 0.359 -15.19722 11.01842 15.71485 134.84242 -45.06245 -21.61107 -3.51693 31.72887 8.57963 -19.44901 -21.94364 -0.33405 -0.02559 -0.44977 45.21762 21.64123 -15.17527 -31.8388 -8.73733 3.9099 2.80614
0.00059 -0.00089 0.00256 34.30102 -16.59916 -13.34301 39.94643 5.29644 -7.00064 -13.99865 1.09457 -0.45306 -20.58752 -7.22201 -16.34806 131.04458 63.41956 -19.49201 0.0956 -15.51174 10.30875 13.96447 134.72967 -45.67557 -21.33023 -3.45724 31.66805 8.56525 -19.59551 -21.93457 2.36128 0.80182 0.05056 45.10839 21.5972 -15.4167 -31.80689 -8.75455 3.94198 2.82528
0.00085 -0.00082 0.00269 34.36751 -16.5512 -13.34829 39.96886 5.21818 -7.22474 -13.66952 0.82761 -0.45395 -19.84818 -5.03722 -15.99122 131.03175 64.54104 -19.80101 -0.26433 -15.72643 9.53639 11.98916 134.639 -46.37957 -20.98966 -3.39373 31.59208 8.54447 -19.78961 -21.92332 5.72061 1.83296 0.67394 44.98325 21.5436 -15.69338 -31.76631 -8.77392 3.97772 2.84668
0.00107 -0.00078 0.00278 34.38733 -16.52055 -13.35178 39.99202 5.15812 -7.43405 -13.3502 0.61075 -0.45477 -19.39163 -3.51804 -15.67105 130.93022 65.39185 -20.12407 -0.42552 -16.14618 8.89547 10.49121 134.5045 -46.88397 -20.77729 -3.33953 31.54783 8.53698 -19.88519 -21.9164 7.6931 2.43874 1.0404 44.89187 21.51058 -15.89422 -31.74379 -8.78872 4.00551 2.86319
0.00116 -0.00088 0.00274 34.27341 -16.53811 -13.34871 40.01591 5.14858 -7.60397 -13.04366 0.52923 -0.45539 -19.73019 -3.84122 -15.42195 130.55726 65.5418 -20.48355 0.00561 -17.17898 8.6268 10.29318 134.22521 -46.9008 -20.90207 -3.30056 31.5937 8.56804 -19.69189 -21.92379 5.70537 1.82855 0.67253 44.8924 21.53102 -15.89746 -31.77307 -8.79122 4.01328 2.86714
0.0012 -0.00103 0.00266 34.11378 -16.57289 -13.34413 40.04081 5.15722 -7.75871 -12.74986 0.49839 -0.45594 -20.34881 -4.82895 -15.21538 130.10041 65.41193 -20.85756 0.62841 -18.40734 8.48899 10.57655 133.90619 -46.70678 -21.15817 -3.27274 31.67087 8.61208 -19.40297 -21.93512 2.35313 0.80005 0.05199 44.92693 21.57252 -15.82304 -31.82 -8.78911 4.0128 2.86604
